# xmcd
#
# Track frame offsets: 
#        150
#        12909
#        26766
#        40960
#        55671
#        68962
#        83938
#        98036
#        113047
#        124838
#        138041
#        152597
#        165990
#        179571
#        191325
#        202681
#        215695
#        229306
#        241834
#        254524
#        268589
#        281574
#        295046
#        308327
#        323285
#
# Disc length: 4473 seconds
#
# Revision: 1
# Processed by: cddbd v1.5.2PL0 Copyright (c) Steve Scherf et al.
# Submitted via: ExactAudioCopy v1.3
#
DISCID=4e117719
DTITLE=Various Artist - Golden Age of American Sweet Bands CD3 1935 -
DTITLE=1937
DYEAR=2002
DGENRE=Swing
TTITLE0=Stuart Allen, Dick Himber and his Ritz-Carlton Orch. - Just One 
TTITLE0=Of Those Things (1935)
TTITLE1=Phil Harris eith his Orch. - I'd Rather Listen To Your Eyes (1
TTITLE1=935)
TTITLE2=Little Jack Little with his Orch. - Lullaby Of Broadway (1935)
TTITLE3=Vocal Trio, Freddie Martin and his Orch. - Now You've Got Me Doi
TTITLE3=ng It (1935)
TTITLE4=Lew Sherwood, Eddy Duchin and his Orch. - I've Got A Feeling You
TTITLE4='re Fooling (1935)
TTITLE5=Buddy Clark, Nat Brandywynne and his Stork Club Orch. - Take My 
TTITLE5=Heart (1936)
TTITLE6=Rudy Vallee and his Connecticut Yankees - The Glory Of Love (193
TTITLE6=6)
TTITLE7=Buddy Clark,  Joe Reichman and his Orch. - Me And The Moon (1936
TTITLE7=)
TTITLE8=Joe Hostetter, Charlie Barnet and his Glen Island Casino Orch. /
TTITLE8=When Did You Leave Heaven (1936)
TTITLE9=Russ Morgan and His Orchestra - I'll Sing You A Thousand Love So
TTITLE9=ngs (1936)
TTITLE10=Stuart Allen, Dick Himber and his Ritz-Carlton Orch. - In The C
TTITLE10=hapel In The Moonlight (1936)
TTITLE11=Mary Jane Walsh,  and his Ripping Rhythms - Us On A Bus (1936)
TTITLE12=Perry Como, Ted Weems and his Orch. - Rainbow On The River (193
TTITLE12=6)
TTITLE13=Buddy Clark, Lud Gluskin and his Continental Orch. - I've Got M
TTITLE13=y Fingers Crossed (1935)
TTITLE14=Buddy Clark, Nat Brandywynne and his Stork Club Orch. - Bye Bye
TTITLE14=Baby (1936)
TTITLE15=Guy Lombardo and His Royal Canadians - You Can't Stop Me From D
TTITLE15=reaming (1937)
TTITLE16=Harriet Hillard, Ozzie Nelson and his Orch. - The Folks Who Liv
TTITLE16=e On The Hill (1937)
TTITLE17=The Andrew Sisters, Leon Belasco and his Orch. - Wake Up And Li
TTITLE17=ve (1937)
TTITLE18=Dolly Dawn with her Dawn Patrol - You're A Sweetheart (1937)
TTITLE19=Skinnay Ennis, Hal Kemp and his Orch. - This Year's Kisses (193
TTITLE19=7)
TTITLE20=Jerry Cooper, Eddy Duchin and his Orch. - Let's Call The Whole 
TTITLE20=Thing Off (1937)
TTITLE21=Hoagy Carmichael, Glen Gray and The Casa Loma Orch. - Little Ol
TTITLE21=d Lady (1939)
TTITLE22=Bea Wain, Larry Clinton and His Orchestra - True Confession (19
TTITLE22=37)
TTITLE23=Lebart Lombardo,  Guy Lombardo and His Royal Canadians - To You
TTITLE23=, Sweetheart, Aloha (1936)
TTITLE24=Bernice Parks, Russ Morgan and His Orchestra - Toodle-Oo (1937)
EXTD=YEAR: 1937
EXTT0=
EXTT1=
EXTT2=
EXTT3=
EXTT4=
EXTT5=
EXTT6=
EXTT7=
EXTT8=
EXTT9=
EXTT10=
EXTT11=
EXTT12=
EXTT13=
EXTT14=
EXTT15=
EXTT16=
EXTT17=
EXTT18=
EXTT19=
EXTT20=
EXTT21=
EXTT22=
EXTT23=
EXTT24=
PLAYORDER=
